<mxfile host="app.diagrams.net" agent="Mozilla/5.0 (Windows NT 10.0; Win64; x64) AppleWebKit/537.36 (KHTML, like Gecko) Chrome/136.0.0.0 Safari/537.36" version="27.0.5">
  <diagram name="Page-1" id="21WMXhzJ2zg-fwKHLCzv">
    <mxGraphModel dx="1042" dy="658" grid="1" gridSize="10" guides="1" tooltips="1" connect="1" arrows="1" fold="1" page="1" pageScale="1" pageWidth="850" pageHeight="1100" math="0" shadow="0">
      <root>
        <mxCell id="0" />
        <mxCell id="1" parent="0" />
        <mxCell id="iGaR8D7he8wnewN5H0VT-11" style="edgeStyle=orthogonalEdgeStyle;rounded=0;orthogonalLoop=1;jettySize=auto;html=1;exitX=0.5;exitY=1;exitDx=0;exitDy=0;entryX=0.5;entryY=0;entryDx=0;entryDy=0;" parent="1" source="iGaR8D7he8wnewN5H0VT-1" target="iGaR8D7he8wnewN5H0VT-4" edge="1">
          <mxGeometry relative="1" as="geometry" />
        </mxCell>
        <mxCell id="iGaR8D7he8wnewN5H0VT-1" value="RX Antenna" style="rounded=0;whiteSpace=wrap;html=1;" parent="1" vertex="1">
          <mxGeometry x="510" y="150" width="120" height="60" as="geometry" />
        </mxCell>
        <mxCell id="iGaR8D7he8wnewN5H0VT-2" value="TX Antenna" style="rounded=0;whiteSpace=wrap;html=1;" parent="1" vertex="1">
          <mxGeometry x="358" y="150" width="120" height="60" as="geometry" />
        </mxCell>
        <mxCell id="3TPcWLnSbFzit0vJXgTz-1" value="" style="edgeStyle=orthogonalEdgeStyle;rounded=0;orthogonalLoop=1;jettySize=auto;html=1;" edge="1" parent="1" source="iGaR8D7he8wnewN5H0VT-3" target="iGaR8D7he8wnewN5H0VT-5">
          <mxGeometry relative="1" as="geometry" />
        </mxCell>
        <mxCell id="iGaR8D7he8wnewN5H0VT-3" value="DAC" style="rounded=0;whiteSpace=wrap;html=1;" parent="1" vertex="1">
          <mxGeometry x="205" y="470" width="120" height="60" as="geometry" />
        </mxCell>
        <mxCell id="iGaR8D7he8wnewN5H0VT-12" style="edgeStyle=orthogonalEdgeStyle;rounded=0;orthogonalLoop=1;jettySize=auto;html=1;exitX=0.5;exitY=1;exitDx=0;exitDy=0;entryX=0.5;entryY=0;entryDx=0;entryDy=0;" parent="1" source="iGaR8D7he8wnewN5H0VT-4" target="iGaR8D7he8wnewN5H0VT-6" edge="1">
          <mxGeometry relative="1" as="geometry" />
        </mxCell>
        <mxCell id="iGaR8D7he8wnewN5H0VT-4" value="Low Noise Amplifier" style="rounded=0;whiteSpace=wrap;html=1;" parent="1" vertex="1">
          <mxGeometry x="510" y="230" width="120" height="60" as="geometry" />
        </mxCell>
        <mxCell id="iGaR8D7he8wnewN5H0VT-24" style="edgeStyle=orthogonalEdgeStyle;rounded=0;orthogonalLoop=1;jettySize=auto;html=1;exitX=1;exitY=0.5;exitDx=0;exitDy=0;entryX=0;entryY=0.5;entryDx=0;entryDy=0;" parent="1" source="iGaR8D7he8wnewN5H0VT-5" target="iGaR8D7he8wnewN5H0VT-23" edge="1">
          <mxGeometry relative="1" as="geometry" />
        </mxCell>
        <mxCell id="iGaR8D7he8wnewN5H0VT-5" value="Voltage Controlled Oscillator" style="whiteSpace=wrap;html=1;" parent="1" vertex="1">
          <mxGeometry x="205" y="310" width="120" height="60" as="geometry" />
        </mxCell>
        <mxCell id="iGaR8D7he8wnewN5H0VT-21" style="edgeStyle=orthogonalEdgeStyle;rounded=0;orthogonalLoop=1;jettySize=auto;html=1;exitX=0.5;exitY=1;exitDx=0;exitDy=0;entryX=0.5;entryY=0;entryDx=0;entryDy=0;" parent="1" source="iGaR8D7he8wnewN5H0VT-6" target="iGaR8D7he8wnewN5H0VT-20" edge="1">
          <mxGeometry relative="1" as="geometry" />
        </mxCell>
        <mxCell id="iGaR8D7he8wnewN5H0VT-6" value="Mixer" style="whiteSpace=wrap;html=1;" parent="1" vertex="1">
          <mxGeometry x="510" y="310" width="120" height="60" as="geometry" />
        </mxCell>
        <mxCell id="3TPcWLnSbFzit0vJXgTz-5" value="" style="edgeStyle=orthogonalEdgeStyle;rounded=0;orthogonalLoop=1;jettySize=auto;html=1;" edge="1" parent="1" source="iGaR8D7he8wnewN5H0VT-13" target="3TPcWLnSbFzit0vJXgTz-2">
          <mxGeometry relative="1" as="geometry" />
        </mxCell>
        <mxCell id="iGaR8D7he8wnewN5H0VT-13" value="ADC" style="rounded=0;whiteSpace=wrap;html=1;" parent="1" vertex="1">
          <mxGeometry x="510" y="470" width="120" height="60" as="geometry" />
        </mxCell>
        <mxCell id="iGaR8D7he8wnewN5H0VT-15" value="Display/Computer" style="rounded=0;whiteSpace=wrap;html=1;" parent="1" vertex="1">
          <mxGeometry x="358" y="580" width="120" height="60" as="geometry" />
        </mxCell>
        <mxCell id="iGaR8D7he8wnewN5H0VT-27" style="edgeStyle=orthogonalEdgeStyle;rounded=0;orthogonalLoop=1;jettySize=auto;html=1;exitX=0.5;exitY=0;exitDx=0;exitDy=0;entryX=0.5;entryY=1;entryDx=0;entryDy=0;" parent="1" source="iGaR8D7he8wnewN5H0VT-19" target="iGaR8D7he8wnewN5H0VT-2" edge="1">
          <mxGeometry relative="1" as="geometry" />
        </mxCell>
        <mxCell id="iGaR8D7he8wnewN5H0VT-19" value="Power Amplifier" style="whiteSpace=wrap;html=1;" parent="1" vertex="1">
          <mxGeometry x="358" y="230" width="120" height="60" as="geometry" />
        </mxCell>
        <mxCell id="iGaR8D7he8wnewN5H0VT-22" style="edgeStyle=orthogonalEdgeStyle;rounded=0;orthogonalLoop=1;jettySize=auto;html=1;exitX=0.5;exitY=1;exitDx=0;exitDy=0;entryX=0.5;entryY=0;entryDx=0;entryDy=0;" parent="1" source="iGaR8D7he8wnewN5H0VT-20" target="iGaR8D7he8wnewN5H0VT-13" edge="1">
          <mxGeometry relative="1" as="geometry" />
        </mxCell>
        <mxCell id="iGaR8D7he8wnewN5H0VT-20" value="Low Pass Filter" style="whiteSpace=wrap;html=1;" parent="1" vertex="1">
          <mxGeometry x="510" y="390" width="120" height="60" as="geometry" />
        </mxCell>
        <mxCell id="iGaR8D7he8wnewN5H0VT-25" style="edgeStyle=orthogonalEdgeStyle;rounded=0;orthogonalLoop=1;jettySize=auto;html=1;exitX=0.5;exitY=0;exitDx=0;exitDy=0;entryX=0.5;entryY=1;entryDx=0;entryDy=0;" parent="1" source="iGaR8D7he8wnewN5H0VT-23" target="iGaR8D7he8wnewN5H0VT-19" edge="1">
          <mxGeometry relative="1" as="geometry" />
        </mxCell>
        <mxCell id="iGaR8D7he8wnewN5H0VT-26" style="edgeStyle=orthogonalEdgeStyle;rounded=0;orthogonalLoop=1;jettySize=auto;html=1;exitX=1;exitY=0.5;exitDx=0;exitDy=0;entryX=0;entryY=0.5;entryDx=0;entryDy=0;" parent="1" source="iGaR8D7he8wnewN5H0VT-23" target="iGaR8D7he8wnewN5H0VT-6" edge="1">
          <mxGeometry relative="1" as="geometry" />
        </mxCell>
        <mxCell id="iGaR8D7he8wnewN5H0VT-23" value="Splitter" style="whiteSpace=wrap;html=1;" parent="1" vertex="1">
          <mxGeometry x="358" y="310" width="120" height="60" as="geometry" />
        </mxCell>
        <mxCell id="3TPcWLnSbFzit0vJXgTz-4" value="" style="edgeStyle=orthogonalEdgeStyle;rounded=0;orthogonalLoop=1;jettySize=auto;html=1;" edge="1" parent="1" source="3TPcWLnSbFzit0vJXgTz-2" target="iGaR8D7he8wnewN5H0VT-3">
          <mxGeometry relative="1" as="geometry" />
        </mxCell>
        <mxCell id="3TPcWLnSbFzit0vJXgTz-6" value="" style="edgeStyle=orthogonalEdgeStyle;rounded=0;orthogonalLoop=1;jettySize=auto;html=1;" edge="1" parent="1" source="3TPcWLnSbFzit0vJXgTz-2" target="iGaR8D7he8wnewN5H0VT-15">
          <mxGeometry relative="1" as="geometry" />
        </mxCell>
        <mxCell id="3TPcWLnSbFzit0vJXgTz-2" value="MIcrocontroller" style="whiteSpace=wrap;html=1;" vertex="1" parent="1">
          <mxGeometry x="358" y="470" width="120" height="60" as="geometry" />
        </mxCell>
        <mxCell id="3TPcWLnSbFzit0vJXgTz-7" value="" style="triangle;whiteSpace=wrap;html=1;direction=south;" vertex="1" parent="1">
          <mxGeometry x="392" y="90" width="52" height="35" as="geometry" />
        </mxCell>
        <mxCell id="3TPcWLnSbFzit0vJXgTz-10" value="" style="endArrow=none;html=1;rounded=0;entryX=0;entryY=0.5;entryDx=0;entryDy=0;" edge="1" parent="1" target="3TPcWLnSbFzit0vJXgTz-7">
          <mxGeometry width="50" height="50" relative="1" as="geometry">
            <mxPoint x="418" y="150" as="sourcePoint" />
            <mxPoint x="418" y="90" as="targetPoint" />
          </mxGeometry>
        </mxCell>
        <mxCell id="3TPcWLnSbFzit0vJXgTz-11" value="" style="triangle;whiteSpace=wrap;html=1;direction=south;" vertex="1" parent="1">
          <mxGeometry x="544" y="90" width="52" height="35" as="geometry" />
        </mxCell>
        <mxCell id="3TPcWLnSbFzit0vJXgTz-12" value="" style="endArrow=none;html=1;rounded=0;entryX=0;entryY=0.5;entryDx=0;entryDy=0;" edge="1" parent="1" target="3TPcWLnSbFzit0vJXgTz-11">
          <mxGeometry width="50" height="50" relative="1" as="geometry">
            <mxPoint x="570" y="150" as="sourcePoint" />
            <mxPoint x="570" y="90" as="targetPoint" />
          </mxGeometry>
        </mxCell>
      </root>
    </mxGraphModel>
  </diagram>
</mxfile>
